<?xml version="1.0" encoding="utf-8" standalone="no"?>
<!DOCTYPE svg PUBLIC "-//W3C//DTD SVG 1.1//EN"
  "http://www.w3.org/Graphics/SVG/1.1/DTD/svg11.dtd">
<!-- Created with matplotlib (http://matplotlib.org/) -->
<svg height="432pt" version="1.1" viewBox="0 0 576 432" width="576pt" xmlns="http://www.w3.org/2000/svg" xmlns:xlink="http://www.w3.org/1999/xlink">
 <defs>
  <style type="text/css">
*{stroke-linecap:butt;stroke-linejoin:round;}
  </style>
 </defs>
 <g id="figure_1">
  <g id="patch_1">
   <path d="
M0 432
L576 432
L576 0
L0 0
z
" style="fill:#ffffff;"/>
  </g>
  <g id="axes_1">
   <g id="patch_2">
    <path d="
M72 118.33
L518.4 118.33
L518.4 43.2
L72 43.2
z
" style="fill:#ffffff;"/>
   </g>
   <g id="line2d_1">
    <path clip-path="url(#pd7316e3762)" d="
M72 91.4833
L76.464 91.1285
L80.928 89.8163
L85.392 88.7824
L89.856 86.6683
L94.32 83.8379
L98.784 81.2792
L103.248 78.6812
L107.712 77.577
L112.176 77.0491
L116.64 77.2332
L121.104 77.8035
L125.568 78.8085
L130.032 79.4768
L134.496 78.4222
L138.96 74.757
L143.424 70.6278
L147.888 69.1851
L152.352 66.0534
L156.816 68.0906
L161.28 64.8148
L165.744 64.1901
L170.208 66.6919
L174.672 69.3927
L179.136 72.7957
L183.6 76.583
L188.064 76.6
L192.528 78.5744
L196.992 80.6755
L201.456 80.6234
L205.92 80.2028
L210.384 79.8426
L214.848 83.1765
L219.312 88.2634
L223.776 92.9961
L228.24 94.4664
L232.704 92.2051
L237.168 93.484
L241.632 95.45
L246.096 94.043
L250.56 92.561
L255.024 94.4772
L259.488 92.7555
L263.952 92.661
L268.416 91.6384
L272.88 91.0859
L277.344 90.8216
L281.808 88.2747
L286.272 87.0903
L290.736 81.1221
L295.2 81.9723
L299.664 83.1324
L304.128 78.7223
L308.592 79.8466
L313.056 81.043
L317.52 83.3843
L321.984 84.2612
L326.448 87.1288
L330.912 86.8294
L335.376 88.1311
L339.84 85.6789
L344.304 88.283
L348.768 92.0157
L353.232 94.7737
L357.696 97.4891
L362.16 99.2686
L366.624 100.576
L371.088 102.18
L375.552 104.599
L380.016 106.149
L384.48 107.476
L388.944 103.023
L393.408 99.5318
L397.872 94.6432
L402.336 92.6906
L406.8 92.23
L411.264 92.5301
L415.728 91.0181
L420.192 89.5209
L424.656 87.8945
L429.12 87.5012
L433.584 86.2428
L438.048 85.1876
L442.512 82.3318
L446.976 81.5397
L451.44 83.5673
L455.904 85.0111
L460.368 88.4973
L464.832 90.8719
L469.296 94.4842
L473.76 98.4558
L478.224 100.975
L482.688 101.123
L487.152 100.623
L491.616 95.8413
L496.08 100.651
L500.544 101.58
L505.008 101.459
L509.472 100.739
L513.936 103.088" style="fill:none;stroke:#0000ff;stroke-dasharray:1.000000,3.000000;stroke-dashoffset:0.0;"/>
   </g>
   <g id="line2d_2">
    <path clip-path="url(#pd7316e3762)" d="
M72 91.4833
L76.464 91.1285
L80.928 89.8163
L85.392 88.7824
L89.856 86.6683
L94.32 83.8379
L98.784 74.0261
L103.248 76.2314
L107.712 69.2592
L112.176 77.4004
L116.64 77.1845
L121.104 75.156
L125.568 65.7452
L130.032 71.0744
L134.496 68.5937
L138.96 59.4929
L143.424 57.8905
L147.888 54.0223
L152.352 52.6421
L156.816 56.0394
L161.28 54.7603
L165.744 65.6155
L170.208 61.9375
L174.672 60.5888
L179.136 63.5914
L183.6 65.4796
L188.064 69.1219
L192.528 77.7453
L196.992 75.3733
L201.456 83.7549
L205.92 80.9483
L210.384 87.7742
L214.848 80.9216
L219.312 90.455
L223.776 91.3512
L228.24 86.565
L232.704 87.7589
L237.168 84.7825
L241.632 83.3272
L246.096 81.2482
L250.56 73.4311
L255.024 78.4401
L259.488 64.9388
L263.952 65.0364
L268.416 69.0382
L272.88 64.5991
L277.344 71.4192
L281.808 67.8251
L286.272 65.984
L290.736 59.3192
L295.2 69.7936
L299.664 61.4406
L304.128 57.0383
L308.592 57.1107
L313.056 59.6987
L317.52 51.1927
L321.984 56.0724
L326.448 52.1955
L330.912 53.8079
L335.376 56.66
L339.84 66.7568
L344.304 59.7496
L348.768 69.7691
L353.232 69.8297
L357.696 73.8947
L362.16 68.554
L366.624 76.358
L371.088 80.2353
L375.552 74.1206
L380.016 74.6352
L384.48 69.2361
L388.944 74.1417
L393.408 76.5588
L397.872 70.708
L402.336 70.9029
L406.8 68.4281
L411.264 63.7319
L415.728 66.7665
L420.192 66.2245
L424.656 64.1808
L429.12 56.1785
L433.584 60.1515
L438.048 50.9294
L442.512 57.1844
L446.976 55.8893
L451.44 61.0995
L455.904 52.7626
L460.368 66.4999
L464.832 60.5261
L469.296 59.3176
L473.76 63.2363
L478.224 56.7831
L482.688 63.8004
L487.152 61.3136
L491.616 59.9467
L496.08 49.8202
L500.544 65.3531
L505.008 63.3955
L509.472 60.329
L513.936 63.7654" style="fill:none;stroke:#008000;stroke-linecap:square;"/>
   </g>
   <g id="matplotlib.axis_1">
    <g id="xtick_1">
     <g id="line2d_3">
      <defs>
       <path d="
M0 0
L0 -4" id="m93b0483c22" style="stroke:#000000;stroke-width:0.5;"/>
      </defs>
      <g>
       <use style="stroke:#000000;stroke-width:0.5;" x="72.0" xlink:href="#m93b0483c22" y="118.330434783"/>
      </g>
     </g>
     <g id="line2d_4">
      <defs>
       <path d="
M0 0
L0 4" id="m741efc42ff" style="stroke:#000000;stroke-width:0.5;"/>
      </defs>
      <g>
       <use style="stroke:#000000;stroke-width:0.5;" x="72.0" xlink:href="#m741efc42ff" y="43.2"/>
      </g>
     </g>
     <g id="text_1">
      <!-- 0 -->
      <defs>
       <path d="
M31.7812 66.4062
Q24.1719 66.4062 20.3281 58.9062
Q16.5 51.4219 16.5 36.375
Q16.5 21.3906 20.3281 13.8906
Q24.1719 6.39062 31.7812 6.39062
Q39.4531 6.39062 43.2812 13.8906
Q47.125 21.3906 47.125 36.375
Q47.125 51.4219 43.2812 58.9062
Q39.4531 66.4062 31.7812 66.4062
M31.7812 74.2188
Q44.0469 74.2188 50.5156 64.5156
Q56.9844 54.8281 56.9844 36.375
Q56.9844 17.9688 50.5156 8.26562
Q44.0469 -1.42188 31.7812 -1.42188
Q19.5312 -1.42188 13.0625 8.26562
Q6.59375 17.9688 6.59375 36.375
Q6.59375 54.8281 13.0625 64.5156
Q19.5312 74.2188 31.7812 74.2188" id="BitstreamVeraSans-Roman-30"/>
      </defs>
      <g transform="translate(68.9765625 131.448559783)scale(0.12 -0.12)">
       <use xlink:href="#BitstreamVeraSans-Roman-30"/>
      </g>
     </g>
    </g>
    <g id="xtick_2">
     <g id="line2d_5">
      <g>
       <use style="stroke:#000000;stroke-width:0.5;" x="161.28" xlink:href="#m93b0483c22" y="118.330434783"/>
      </g>
     </g>
     <g id="line2d_6">
      <g>
       <use style="stroke:#000000;stroke-width:0.5;" x="161.28" xlink:href="#m741efc42ff" y="43.2"/>
      </g>
     </g>
     <g id="text_2">
      <!-- 20 -->
      <defs>
       <path d="
M19.1875 8.29688
L53.6094 8.29688
L53.6094 0
L7.32812 0
L7.32812 8.29688
Q12.9375 14.1094 22.625 23.8906
Q32.3281 33.6875 34.8125 36.5312
Q39.5469 41.8438 41.4219 45.5312
Q43.3125 49.2188 43.3125 52.7812
Q43.3125 58.5938 39.2344 62.25
Q35.1562 65.9219 28.6094 65.9219
Q23.9688 65.9219 18.8125 64.3125
Q13.6719 62.7031 7.8125 59.4219
L7.8125 69.3906
Q13.7656 71.7812 18.9375 73
Q24.125 74.2188 28.4219 74.2188
Q39.75 74.2188 46.4844 68.5469
Q53.2188 62.8906 53.2188 53.4219
Q53.2188 48.9219 51.5312 44.8906
Q49.8594 40.875 45.4062 35.4062
Q44.1875 33.9844 37.6406 27.2188
Q31.1094 20.4531 19.1875 8.29688" id="BitstreamVeraSans-Roman-32"/>
      </defs>
      <g transform="translate(154.483125 131.448559783)scale(0.12 -0.12)">
       <use xlink:href="#BitstreamVeraSans-Roman-32"/>
       <use x="63.623046875" xlink:href="#BitstreamVeraSans-Roman-30"/>
      </g>
     </g>
    </g>
    <g id="xtick_3">
     <g id="line2d_7">
      <g>
       <use style="stroke:#000000;stroke-width:0.5;" x="250.56" xlink:href="#m93b0483c22" y="118.330434783"/>
      </g>
     </g>
     <g id="line2d_8">
      <g>
       <use style="stroke:#000000;stroke-width:0.5;" x="250.56" xlink:href="#m741efc42ff" y="43.2"/>
      </g>
     </g>
     <g id="text_3">
      <!-- 40 -->
      <defs>
       <path d="
M37.7969 64.3125
L12.8906 25.3906
L37.7969 25.3906
z

M35.2031 72.9062
L47.6094 72.9062
L47.6094 25.3906
L58.0156 25.3906
L58.0156 17.1875
L47.6094 17.1875
L47.6094 0
L37.7969 0
L37.7969 17.1875
L4.89062 17.1875
L4.89062 26.7031
z
" id="BitstreamVeraSans-Roman-34"/>
      </defs>
      <g transform="translate(243.616875 131.448559783)scale(0.12 -0.12)">
       <use xlink:href="#BitstreamVeraSans-Roman-34"/>
       <use x="63.623046875" xlink:href="#BitstreamVeraSans-Roman-30"/>
      </g>
     </g>
    </g>
    <g id="xtick_4">
     <g id="line2d_9">
      <g>
       <use style="stroke:#000000;stroke-width:0.5;" x="339.84" xlink:href="#m93b0483c22" y="118.330434783"/>
      </g>
     </g>
     <g id="line2d_10">
      <g>
       <use style="stroke:#000000;stroke-width:0.5;" x="339.84" xlink:href="#m741efc42ff" y="43.2"/>
      </g>
     </g>
     <g id="text_4">
      <!-- 60 -->
      <defs>
       <path d="
M33.0156 40.375
Q26.375 40.375 22.4844 35.8281
Q18.6094 31.2969 18.6094 23.3906
Q18.6094 15.5312 22.4844 10.9531
Q26.375 6.39062 33.0156 6.39062
Q39.6562 6.39062 43.5312 10.9531
Q47.4062 15.5312 47.4062 23.3906
Q47.4062 31.2969 43.5312 35.8281
Q39.6562 40.375 33.0156 40.375
M52.5938 71.2969
L52.5938 62.3125
Q48.875 64.0625 45.0938 64.9844
Q41.3125 65.9219 37.5938 65.9219
Q27.8281 65.9219 22.6719 59.3281
Q17.5312 52.7344 16.7969 39.4062
Q19.6719 43.6562 24.0156 45.9219
Q28.375 48.1875 33.5938 48.1875
Q44.5781 48.1875 50.9531 41.5156
Q57.3281 34.8594 57.3281 23.3906
Q57.3281 12.1562 50.6875 5.35938
Q44.0469 -1.42188 33.0156 -1.42188
Q20.3594 -1.42188 13.6719 8.26562
Q6.98438 17.9688 6.98438 36.375
Q6.98438 53.6562 15.1875 63.9375
Q23.3906 74.2188 37.2031 74.2188
Q40.9219 74.2188 44.7031 73.4844
Q48.4844 72.75 52.5938 71.2969" id="BitstreamVeraSans-Roman-36"/>
      </defs>
      <g transform="translate(333.0225 131.448559783)scale(0.12 -0.12)">
       <use xlink:href="#BitstreamVeraSans-Roman-36"/>
       <use x="63.623046875" xlink:href="#BitstreamVeraSans-Roman-30"/>
      </g>
     </g>
    </g>
    <g id="xtick_5">
     <g id="line2d_11">
      <g>
       <use style="stroke:#000000;stroke-width:0.5;" x="429.12" xlink:href="#m93b0483c22" y="118.330434783"/>
      </g>
     </g>
     <g id="line2d_12">
      <g>
       <use style="stroke:#000000;stroke-width:0.5;" x="429.12" xlink:href="#m741efc42ff" y="43.2"/>
      </g>
     </g>
     <g id="text_5">
      <!-- 80 -->
      <defs>
       <path d="
M31.7812 34.625
Q24.75 34.625 20.7188 30.8594
Q16.7031 27.0938 16.7031 20.5156
Q16.7031 13.9219 20.7188 10.1562
Q24.75 6.39062 31.7812 6.39062
Q38.8125 6.39062 42.8594 10.1719
Q46.9219 13.9688 46.9219 20.5156
Q46.9219 27.0938 42.8906 30.8594
Q38.875 34.625 31.7812 34.625
M21.9219 38.8125
Q15.5781 40.375 12.0312 44.7188
Q8.5 49.0781 8.5 55.3281
Q8.5 64.0625 14.7188 69.1406
Q20.9531 74.2188 31.7812 74.2188
Q42.6719 74.2188 48.875 69.1406
Q55.0781 64.0625 55.0781 55.3281
Q55.0781 49.0781 51.5312 44.7188
Q48 40.375 41.7031 38.8125
Q48.8281 37.1562 52.7969 32.3125
Q56.7812 27.4844 56.7812 20.5156
Q56.7812 9.90625 50.3125 4.23438
Q43.8438 -1.42188 31.7812 -1.42188
Q19.7344 -1.42188 13.25 4.23438
Q6.78125 9.90625 6.78125 20.5156
Q6.78125 27.4844 10.7812 32.3125
Q14.7969 37.1562 21.9219 38.8125
M18.3125 54.3906
Q18.3125 48.7344 21.8438 45.5625
Q25.3906 42.3906 31.7812 42.3906
Q38.1406 42.3906 41.7188 45.5625
Q45.3125 48.7344 45.3125 54.3906
Q45.3125 60.0625 41.7188 63.2344
Q38.1406 66.4062 31.7812 66.4062
Q25.3906 66.4062 21.8438 63.2344
Q18.3125 60.0625 18.3125 54.3906" id="BitstreamVeraSans-Roman-38"/>
      </defs>
      <g transform="translate(422.2903125 131.448559783)scale(0.12 -0.12)">
       <use xlink:href="#BitstreamVeraSans-Roman-38"/>
       <use x="63.623046875" xlink:href="#BitstreamVeraSans-Roman-30"/>
      </g>
     </g>
    </g>
    <g id="xtick_6">
     <g id="line2d_13">
      <g>
       <use style="stroke:#000000;stroke-width:0.5;" x="518.4" xlink:href="#m93b0483c22" y="118.330434783"/>
      </g>
     </g>
     <g id="line2d_14">
      <g>
       <use style="stroke:#000000;stroke-width:0.5;" x="518.4" xlink:href="#m741efc42ff" y="43.2"/>
      </g>
     </g>
     <g id="text_6">
      <!-- 100 -->
      <defs>
       <path d="
M12.4062 8.29688
L28.5156 8.29688
L28.5156 63.9219
L10.9844 60.4062
L10.9844 69.3906
L28.4219 72.9062
L38.2812 72.9062
L38.2812 8.29688
L54.3906 8.29688
L54.3906 0
L12.4062 0
z
" id="BitstreamVeraSans-Roman-31"/>
      </defs>
      <g transform="translate(508.005 131.448559783)scale(0.12 -0.12)">
       <use xlink:href="#BitstreamVeraSans-Roman-31"/>
       <use x="63.623046875" xlink:href="#BitstreamVeraSans-Roman-30"/>
       <use x="127.24609375" xlink:href="#BitstreamVeraSans-Roman-30"/>
      </g>
     </g>
    </g>
   </g>
   <g id="matplotlib.axis_2">
    <g id="ytick_1">
     <g id="line2d_15">
      <defs>
       <path d="
M0 0
L4 0" id="m728421d6d4" style="stroke:#000000;stroke-width:0.5;"/>
      </defs>
      <g>
       <use style="stroke:#000000;stroke-width:0.5;" x="72.0" xlink:href="#m728421d6d4" y="118.330434783"/>
      </g>
     </g>
     <g id="line2d_16">
      <defs>
       <path d="
M0 0
L-4 0" id="mcb0005524f" style="stroke:#000000;stroke-width:0.5;"/>
      </defs>
      <g>
       <use style="stroke:#000000;stroke-width:0.5;" x="518.4" xlink:href="#mcb0005524f" y="118.330434783"/>
      </g>
     </g>
     <g id="text_7">
      <!-- −3 -->
      <defs>
       <path d="
M10.5938 35.5
L73.1875 35.5
L73.1875 27.2031
L10.5938 27.2031
z
" id="BitstreamVeraSans-Roman-2212"/>
       <path d="
M40.5781 39.3125
Q47.6562 37.7969 51.625 33
Q55.6094 28.2188 55.6094 21.1875
Q55.6094 10.4062 48.1875 4.48438
Q40.7656 -1.42188 27.0938 -1.42188
Q22.5156 -1.42188 17.6562 -0.515625
Q12.7969 0.390625 7.625 2.20312
L7.625 11.7188
Q11.7188 9.32812 16.5938 8.10938
Q21.4844 6.89062 26.8125 6.89062
Q36.0781 6.89062 40.9375 10.5469
Q45.7969 14.2031 45.7969 21.1875
Q45.7969 27.6406 41.2812 31.2656
Q36.7656 34.9062 28.7188 34.9062
L20.2188 34.9062
L20.2188 43.0156
L29.1094 43.0156
Q36.375 43.0156 40.2344 45.9219
Q44.0938 48.8281 44.0938 54.2969
Q44.0938 59.9062 40.1094 62.9062
Q36.1406 65.9219 28.7188 65.9219
Q24.6562 65.9219 20.0156 65.0312
Q15.375 64.1562 9.8125 62.3125
L9.8125 71.0938
Q15.4375 72.6562 20.3438 73.4375
Q25.25 74.2188 29.5938 74.2188
Q40.8281 74.2188 47.3594 69.1094
Q53.9062 64.0156 53.9062 55.3281
Q53.9062 49.2656 50.4375 45.0938
Q46.9688 40.9219 40.5781 39.3125" id="BitstreamVeraSans-Roman-33"/>
      </defs>
      <g transform="translate(52.5425 121.641684783)scale(0.12 -0.12)">
       <use xlink:href="#BitstreamVeraSans-Roman-2212"/>
       <use x="83.7890625" xlink:href="#BitstreamVeraSans-Roman-33"/>
      </g>
     </g>
    </g>
    <g id="ytick_2">
     <g id="line2d_17">
      <g>
       <use style="stroke:#000000;stroke-width:0.5;" x="72.0" xlink:href="#m728421d6d4" y="105.808695652"/>
      </g>
     </g>
     <g id="line2d_18">
      <g>
       <use style="stroke:#000000;stroke-width:0.5;" x="518.4" xlink:href="#mcb0005524f" y="105.808695652"/>
      </g>
     </g>
     <g id="text_8">
      <!-- −2 -->
      <g transform="translate(52.7825 109.119945652)scale(0.12 -0.12)">
       <use xlink:href="#BitstreamVeraSans-Roman-2212"/>
       <use x="83.7890625" xlink:href="#BitstreamVeraSans-Roman-32"/>
      </g>
     </g>
    </g>
    <g id="ytick_3">
     <g id="line2d_19">
      <g>
       <use style="stroke:#000000;stroke-width:0.5;" x="72.0" xlink:href="#m728421d6d4" y="93.2869565217"/>
      </g>
     </g>
     <g id="line2d_20">
      <g>
       <use style="stroke:#000000;stroke-width:0.5;" x="518.4" xlink:href="#mcb0005524f" y="93.2869565217"/>
      </g>
     </g>
     <g id="text_9">
      <!-- −1 -->
      <g transform="translate(52.68875 96.5982065217)scale(0.12 -0.12)">
       <use xlink:href="#BitstreamVeraSans-Roman-2212"/>
       <use x="83.7890625" xlink:href="#BitstreamVeraSans-Roman-31"/>
      </g>
     </g>
    </g>
    <g id="ytick_4">
     <g id="line2d_21">
      <g>
       <use style="stroke:#000000;stroke-width:0.5;" x="72.0" xlink:href="#m728421d6d4" y="80.7652173913"/>
      </g>
     </g>
     <g id="line2d_22">
      <g>
       <use style="stroke:#000000;stroke-width:0.5;" x="518.4" xlink:href="#mcb0005524f" y="80.7652173913"/>
      </g>
     </g>
     <g id="text_10">
      <!-- 0 -->
      <g transform="translate(61.953125 84.0764673913)scale(0.12 -0.12)">
       <use xlink:href="#BitstreamVeraSans-Roman-30"/>
      </g>
     </g>
    </g>
    <g id="ytick_5">
     <g id="line2d_23">
      <g>
       <use style="stroke:#000000;stroke-width:0.5;" x="72.0" xlink:href="#m728421d6d4" y="68.2434782609"/>
      </g>
     </g>
     <g id="line2d_24">
      <g>
       <use style="stroke:#000000;stroke-width:0.5;" x="518.4" xlink:href="#mcb0005524f" y="68.2434782609"/>
      </g>
     </g>
     <g id="text_11">
      <!-- 1 -->
      <g transform="translate(62.79125 71.5547282609)scale(0.12 -0.12)">
       <use xlink:href="#BitstreamVeraSans-Roman-31"/>
      </g>
     </g>
    </g>
    <g id="ytick_6">
     <g id="line2d_25">
      <g>
       <use style="stroke:#000000;stroke-width:0.5;" x="72.0" xlink:href="#m728421d6d4" y="55.7217391304"/>
      </g>
     </g>
     <g id="line2d_26">
      <g>
       <use style="stroke:#000000;stroke-width:0.5;" x="518.4" xlink:href="#mcb0005524f" y="55.7217391304"/>
      </g>
     </g>
     <g id="text_12">
      <!-- 2 -->
      <g transform="translate(62.44625 59.0329891304)scale(0.12 -0.12)">
       <use xlink:href="#BitstreamVeraSans-Roman-32"/>
      </g>
     </g>
    </g>
    <g id="ytick_7">
     <g id="line2d_27">
      <g>
       <use style="stroke:#000000;stroke-width:0.5;" x="72.0" xlink:href="#m728421d6d4" y="43.2"/>
      </g>
     </g>
     <g id="line2d_28">
      <g>
       <use style="stroke:#000000;stroke-width:0.5;" x="518.4" xlink:href="#mcb0005524f" y="43.2"/>
      </g>
     </g>
     <g id="text_13">
      <!-- 3 -->
      <g transform="translate(62.241875 46.51125)scale(0.12 -0.12)">
       <use xlink:href="#BitstreamVeraSans-Roman-33"/>
      </g>
     </g>
    </g>
   </g>
   <g id="patch_3">
    <path d="
M72 43.2
L518.4 43.2" style="fill:none;stroke:#000000;"/>
   </g>
   <g id="patch_4">
    <path d="
M518.4 118.33
L518.4 43.2" style="fill:none;stroke:#000000;"/>
   </g>
   <g id="patch_5">
    <path d="
M72 118.33
L518.4 118.33" style="fill:none;stroke:#000000;"/>
   </g>
   <g id="patch_6">
    <path d="
M72 118.33
L72 43.2" style="fill:none;stroke:#000000;"/>
   </g>
  </g>
  <g id="axes_2">
   <g id="patch_7">
    <path d="
M72 208.487
L518.4 208.487
L518.4 133.357
L72 133.357
z
" style="fill:#ffffff;"/>
   </g>
   <g id="line2d_29">
    <path clip-path="url(#pa8d1ef9391)" d="
M72 198.346
L76.464 197.204
L80.928 190.216
L85.392 184.835
L89.856 180.098
L94.32 177.591
L98.784 177.668
L103.248 176.971
L107.712 174.001
L112.176 171.117
L116.64 166.194
L121.104 159.366
L125.568 151.076
L130.032 145.281
L134.496 142.897
L138.96 146.948
L143.424 153.753
L147.888 161.051
L152.352 166.796
L156.816 168.585
L161.28 169.006
L165.744 167.531
L170.208 166.516
L174.672 168.219
L179.136 171.711
L183.6 177.512
L188.064 184.938
L192.528 188.317
L196.992 190.569
L201.456 189.82
L205.92 185.805
L210.384 180.283
L214.848 174.833
L219.312 172.15
L223.776 171.702
L228.24 171.33
L232.704 170.339
L237.168 169.336
L241.632 167.112
L246.096 163.722
L250.56 160.344
L255.024 154.786
L259.488 149.05
L263.952 148.076
L268.416 153.964
L272.88 161.758
L277.344 169.404
L281.808 173.866
L286.272 175.49
L290.736 174.905
L295.2 173.668
L299.664 173.607
L304.128 176.275
L308.592 181.625
L313.056 187.988
L317.52 192.302
L321.984 196.4
L326.448 197.176
L330.912 194.791
L335.376 191.292
L339.84 188.148
L344.304 185.227
L348.768 182.558
L353.232 181.247
L357.696 179.833
L362.16 178.053
L366.624 177.008
L371.088 177.194
L375.552 176.418
L380.016 174.804
L384.48 171.786
L388.944 168.27
L393.408 168.883
L397.872 170.919
L402.336 173.063
L406.8 177.621
L411.264 181.929
L415.728 181.455
L420.192 182.299
L424.656 184.969
L429.12 189.33
L433.584 193.89
L438.048 198.218
L442.512 201.266
L446.976 197.426
L451.44 192.903
L455.904 187.855
L460.368 183.921
L464.832 180.502
L469.296 176.047
L473.76 173.403
L478.224 168.583
L482.688 169.733
L487.152 169.903
L491.616 170.524
L496.08 165.564
L500.544 161.486
L505.008 160.984
L509.472 162.813
L513.936 166.314" style="fill:none;stroke:#0000ff;stroke-dasharray:1.000000,3.000000;stroke-dashoffset:0.0;"/>
   </g>
   <g id="line2d_30">
    <path clip-path="url(#pa8d1ef9391)" d="
M72 198.346
L76.464 197.204
L80.928 190.216
L85.392 184.835
L89.856 180.098
L94.32 177.591
L98.784 176.686
L103.248 173.969
L107.712 166.355
L112.176 165.384
L116.64 163.432
L121.104 167.657
L125.568 166.892
L130.032 149.104
L134.496 148.175
L138.96 145.256
L143.424 150.214
L147.888 145.784
L152.352 147.523
L156.816 150.922
L161.28 150.908
L165.744 154.237
L170.208 160.717
L174.672 154.546
L179.136 158.48
L183.6 153.591
L188.064 176.403
L192.528 177.241
L196.992 169.696
L201.456 174.674
L205.92 168.019
L210.384 188.383
L214.848 188.007
L219.312 186.225
L223.776 185.117
L228.24 188.805
L232.704 183.608
L237.168 179.898
L241.632 174.433
L246.096 174.786
L250.56 170.617
L255.024 166.216
L259.488 165.828
L263.952 173.227
L268.416 166.22
L272.88 164.451
L277.344 154.156
L281.808 147.934
L286.272 143.786
L290.736 136.131
L295.2 153.853
L299.664 148.106
L304.128 148.507
L308.592 155.83
L313.056 146.302
L317.52 168.049
L321.984 157.818
L326.448 160.463
L330.912 161.712
L335.376 169.133
L339.84 170.874
L344.304 166.192
L348.768 176.598
L353.232 181.456
L357.696 179.36
L362.16 189.943
L366.624 189.856
L371.088 191.026
L375.552 182.84
L380.016 195.645
L384.48 186.503
L388.944 188.917
L393.408 182.305
L397.872 171.686
L402.336 166.357
L406.8 179.389
L411.264 169.214
L415.728 169.476
L420.192 159.461
L424.656 168.65
L429.12 161.379
L433.584 149.764
L438.048 156.75
L442.512 157.994
L446.976 161.441
L451.44 149.689
L455.904 156.774
L460.368 159.95
L464.832 164.771
L469.296 164.835
L473.76 165.95
L478.224 173.252
L482.688 185.386
L487.152 180.491
L491.616 178.178
L496.08 188.33
L500.544 181.225
L505.008 191.013
L509.472 193.956
L513.936 188.002" style="fill:none;stroke:#008000;stroke-linecap:square;"/>
   </g>
   <g id="matplotlib.axis_3">
    <g id="xtick_7">
     <g id="line2d_31">
      <g>
       <use style="stroke:#000000;stroke-width:0.5;" x="72.0" xlink:href="#m93b0483c22" y="208.486956522"/>
      </g>
     </g>
     <g id="line2d_32">
      <g>
       <use style="stroke:#000000;stroke-width:0.5;" x="72.0" xlink:href="#m741efc42ff" y="133.356521739"/>
      </g>
     </g>
     <g id="text_14">
      <!-- 0 -->
      <g transform="translate(68.9765625 221.605081522)scale(0.12 -0.12)">
       <use xlink:href="#BitstreamVeraSans-Roman-30"/>
      </g>
     </g>
    </g>
    <g id="xtick_8">
     <g id="line2d_33">
      <g>
       <use style="stroke:#000000;stroke-width:0.5;" x="161.28" xlink:href="#m93b0483c22" y="208.486956522"/>
      </g>
     </g>
     <g id="line2d_34">
      <g>
       <use style="stroke:#000000;stroke-width:0.5;" x="161.28" xlink:href="#m741efc42ff" y="133.356521739"/>
      </g>
     </g>
     <g id="text_15">
      <!-- 20 -->
      <g transform="translate(154.483125 221.605081522)scale(0.12 -0.12)">
       <use xlink:href="#BitstreamVeraSans-Roman-32"/>
       <use x="63.623046875" xlink:href="#BitstreamVeraSans-Roman-30"/>
      </g>
     </g>
    </g>
    <g id="xtick_9">
     <g id="line2d_35">
      <g>
       <use style="stroke:#000000;stroke-width:0.5;" x="250.56" xlink:href="#m93b0483c22" y="208.486956522"/>
      </g>
     </g>
     <g id="line2d_36">
      <g>
       <use style="stroke:#000000;stroke-width:0.5;" x="250.56" xlink:href="#m741efc42ff" y="133.356521739"/>
      </g>
     </g>
     <g id="text_16">
      <!-- 40 -->
      <g transform="translate(243.616875 221.605081522)scale(0.12 -0.12)">
       <use xlink:href="#BitstreamVeraSans-Roman-34"/>
       <use x="63.623046875" xlink:href="#BitstreamVeraSans-Roman-30"/>
      </g>
     </g>
    </g>
    <g id="xtick_10">
     <g id="line2d_37">
      <g>
       <use style="stroke:#000000;stroke-width:0.5;" x="339.84" xlink:href="#m93b0483c22" y="208.486956522"/>
      </g>
     </g>
     <g id="line2d_38">
      <g>
       <use style="stroke:#000000;stroke-width:0.5;" x="339.84" xlink:href="#m741efc42ff" y="133.356521739"/>
      </g>
     </g>
     <g id="text_17">
      <!-- 60 -->
      <g transform="translate(333.0225 221.605081522)scale(0.12 -0.12)">
       <use xlink:href="#BitstreamVeraSans-Roman-36"/>
       <use x="63.623046875" xlink:href="#BitstreamVeraSans-Roman-30"/>
      </g>
     </g>
    </g>
    <g id="xtick_11">
     <g id="line2d_39">
      <g>
       <use style="stroke:#000000;stroke-width:0.5;" x="429.12" xlink:href="#m93b0483c22" y="208.486956522"/>
      </g>
     </g>
     <g id="line2d_40">
      <g>
       <use style="stroke:#000000;stroke-width:0.5;" x="429.12" xlink:href="#m741efc42ff" y="133.356521739"/>
      </g>
     </g>
     <g id="text_18">
      <!-- 80 -->
      <g transform="translate(422.2903125 221.605081522)scale(0.12 -0.12)">
       <use xlink:href="#BitstreamVeraSans-Roman-38"/>
       <use x="63.623046875" xlink:href="#BitstreamVeraSans-Roman-30"/>
      </g>
     </g>
    </g>
    <g id="xtick_12">
     <g id="line2d_41">
      <g>
       <use style="stroke:#000000;stroke-width:0.5;" x="518.4" xlink:href="#m93b0483c22" y="208.486956522"/>
      </g>
     </g>
     <g id="line2d_42">
      <g>
       <use style="stroke:#000000;stroke-width:0.5;" x="518.4" xlink:href="#m741efc42ff" y="133.356521739"/>
      </g>
     </g>
     <g id="text_19">
      <!-- 100 -->
      <g transform="translate(508.005 221.605081522)scale(0.12 -0.12)">
       <use xlink:href="#BitstreamVeraSans-Roman-31"/>
       <use x="63.623046875" xlink:href="#BitstreamVeraSans-Roman-30"/>
       <use x="127.24609375" xlink:href="#BitstreamVeraSans-Roman-30"/>
      </g>
     </g>
    </g>
   </g>
   <g id="matplotlib.axis_4">
    <g id="ytick_8">
     <g id="line2d_43">
      <g>
       <use style="stroke:#000000;stroke-width:0.5;" x="72.0" xlink:href="#m728421d6d4" y="208.486956522"/>
      </g>
     </g>
     <g id="line2d_44">
      <g>
       <use style="stroke:#000000;stroke-width:0.5;" x="518.4" xlink:href="#mcb0005524f" y="208.486956522"/>
      </g>
     </g>
     <g id="text_20">
      <!-- −2.5 -->
      <defs>
       <path d="
M10.6875 12.4062
L21 12.4062
L21 0
L10.6875 0
z
" id="BitstreamVeraSans-Roman-2e"/>
       <path d="
M10.7969 72.9062
L49.5156 72.9062
L49.5156 64.5938
L19.8281 64.5938
L19.8281 46.7344
Q21.9688 47.4688 24.1094 47.8281
Q26.2656 48.1875 28.4219 48.1875
Q40.625 48.1875 47.75 41.5
Q54.8906 34.8125 54.8906 23.3906
Q54.8906 11.625 47.5625 5.09375
Q40.2344 -1.42188 26.9062 -1.42188
Q22.3125 -1.42188 17.5469 -0.640625
Q12.7969 0.140625 7.71875 1.70312
L7.71875 11.625
Q12.1094 9.23438 16.7969 8.0625
Q21.4844 6.89062 26.7031 6.89062
Q35.1562 6.89062 40.0781 11.3281
Q45.0156 15.7656 45.0156 23.3906
Q45.0156 31 40.0781 35.4375
Q35.1562 39.8906 26.7031 39.8906
Q22.75 39.8906 18.8125 39.0156
Q14.8906 38.1406 10.7969 36.2812
z
" id="BitstreamVeraSans-Roman-35"/>
      </defs>
      <g transform="translate(41.18 211.798206522)scale(0.12 -0.12)">
       <use xlink:href="#BitstreamVeraSans-Roman-2212"/>
       <use x="83.7890625" xlink:href="#BitstreamVeraSans-Roman-32"/>
       <use x="147.412109375" xlink:href="#BitstreamVeraSans-Roman-2e"/>
       <use x="179.19921875" xlink:href="#BitstreamVeraSans-Roman-35"/>
      </g>
     </g>
    </g>
    <g id="ytick_9">
     <g id="line2d_45">
      <g>
       <use style="stroke:#000000;stroke-width:0.5;" x="72.0" xlink:href="#m728421d6d4" y="200.139130435"/>
      </g>
     </g>
     <g id="line2d_46">
      <g>
       <use style="stroke:#000000;stroke-width:0.5;" x="518.4" xlink:href="#mcb0005524f" y="200.139130435"/>
      </g>
     </g>
     <g id="text_21">
      <!-- −2.0 -->
      <g transform="translate(40.92875 203.450380435)scale(0.12 -0.12)">
       <use xlink:href="#BitstreamVeraSans-Roman-2212"/>
       <use x="83.7890625" xlink:href="#BitstreamVeraSans-Roman-32"/>
       <use x="147.412109375" xlink:href="#BitstreamVeraSans-Roman-2e"/>
       <use x="179.19921875" xlink:href="#BitstreamVeraSans-Roman-30"/>
      </g>
     </g>
    </g>
    <g id="ytick_10">
     <g id="line2d_47">
      <g>
       <use style="stroke:#000000;stroke-width:0.5;" x="72.0" xlink:href="#m728421d6d4" y="191.791304348"/>
      </g>
     </g>
     <g id="line2d_48">
      <g>
       <use style="stroke:#000000;stroke-width:0.5;" x="518.4" xlink:href="#mcb0005524f" y="191.791304348"/>
      </g>
     </g>
     <g id="text_22">
      <!-- −1.5 -->
      <g transform="translate(41.18 195.102554348)scale(0.12 -0.12)">
       <use xlink:href="#BitstreamVeraSans-Roman-2212"/>
       <use x="83.7890625" xlink:href="#BitstreamVeraSans-Roman-31"/>
       <use x="147.412109375" xlink:href="#BitstreamVeraSans-Roman-2e"/>
       <use x="179.19921875" xlink:href="#BitstreamVeraSans-Roman-35"/>
      </g>
     </g>
    </g>
    <g id="ytick_11">
     <g id="line2d_49">
      <g>
       <use style="stroke:#000000;stroke-width:0.5;" x="72.0" xlink:href="#m728421d6d4" y="183.443478261"/>
      </g>
     </g>
     <g id="line2d_50">
      <g>
       <use style="stroke:#000000;stroke-width:0.5;" x="518.4" xlink:href="#mcb0005524f" y="183.443478261"/>
      </g>
     </g>
     <g id="text_23">
      <!-- −1.0 -->
      <g transform="translate(40.92875 186.754728261)scale(0.12 -0.12)">
       <use xlink:href="#BitstreamVeraSans-Roman-2212"/>
       <use x="83.7890625" xlink:href="#BitstreamVeraSans-Roman-31"/>
       <use x="147.412109375" xlink:href="#BitstreamVeraSans-Roman-2e"/>
       <use x="179.19921875" xlink:href="#BitstreamVeraSans-Roman-30"/>
      </g>
     </g>
    </g>
    <g id="ytick_12">
     <g id="line2d_51">
      <g>
       <use style="stroke:#000000;stroke-width:0.5;" x="72.0" xlink:href="#m728421d6d4" y="175.095652174"/>
      </g>
     </g>
     <g id="line2d_52">
      <g>
       <use style="stroke:#000000;stroke-width:0.5;" x="518.4" xlink:href="#mcb0005524f" y="175.095652174"/>
      </g>
     </g>
     <g id="text_24">
      <!-- −0.5 -->
      <g transform="translate(41.18 178.406902174)scale(0.12 -0.12)">
       <use xlink:href="#BitstreamVeraSans-Roman-2212"/>
       <use x="83.7890625" xlink:href="#BitstreamVeraSans-Roman-30"/>
       <use x="147.412109375" xlink:href="#BitstreamVeraSans-Roman-2e"/>
       <use x="179.19921875" xlink:href="#BitstreamVeraSans-Roman-35"/>
      </g>
     </g>
    </g>
    <g id="ytick_13">
     <g id="line2d_53">
      <g>
       <use style="stroke:#000000;stroke-width:0.5;" x="72.0" xlink:href="#m728421d6d4" y="166.747826087"/>
      </g>
     </g>
     <g id="line2d_54">
      <g>
       <use style="stroke:#000000;stroke-width:0.5;" x="518.4" xlink:href="#mcb0005524f" y="166.747826087"/>
      </g>
     </g>
     <g id="text_25">
      <!-- 0.0 -->
      <g transform="translate(50.504375 170.059076087)scale(0.12 -0.12)">
       <use xlink:href="#BitstreamVeraSans-Roman-30"/>
       <use x="63.623046875" xlink:href="#BitstreamVeraSans-Roman-2e"/>
       <use x="95.41015625" xlink:href="#BitstreamVeraSans-Roman-30"/>
      </g>
     </g>
    </g>
    <g id="ytick_14">
     <g id="line2d_55">
      <g>
       <use style="stroke:#000000;stroke-width:0.5;" x="72.0" xlink:href="#m728421d6d4" y="158.4"/>
      </g>
     </g>
     <g id="line2d_56">
      <g>
       <use style="stroke:#000000;stroke-width:0.5;" x="518.4" xlink:href="#mcb0005524f" y="158.4"/>
      </g>
     </g>
     <g id="text_26">
      <!-- 0.5 -->
      <g transform="translate(50.755625 161.71125)scale(0.12 -0.12)">
       <use xlink:href="#BitstreamVeraSans-Roman-30"/>
       <use x="63.623046875" xlink:href="#BitstreamVeraSans-Roman-2e"/>
       <use x="95.41015625" xlink:href="#BitstreamVeraSans-Roman-35"/>
      </g>
     </g>
    </g>
    <g id="ytick_15">
     <g id="line2d_57">
      <g>
       <use style="stroke:#000000;stroke-width:0.5;" x="72.0" xlink:href="#m728421d6d4" y="150.052173913"/>
      </g>
     </g>
     <g id="line2d_58">
      <g>
       <use style="stroke:#000000;stroke-width:0.5;" x="518.4" xlink:href="#mcb0005524f" y="150.052173913"/>
      </g>
     </g>
     <g id="text_27">
      <!-- 1.0 -->
      <g transform="translate(51.03125 153.363423913)scale(0.12 -0.12)">
       <use xlink:href="#BitstreamVeraSans-Roman-31"/>
       <use x="63.623046875" xlink:href="#BitstreamVeraSans-Roman-2e"/>
       <use x="95.41015625" xlink:href="#BitstreamVeraSans-Roman-30"/>
      </g>
     </g>
    </g>
    <g id="ytick_16">
     <g id="line2d_59">
      <g>
       <use style="stroke:#000000;stroke-width:0.5;" x="72.0" xlink:href="#m728421d6d4" y="141.704347826"/>
      </g>
     </g>
     <g id="line2d_60">
      <g>
       <use style="stroke:#000000;stroke-width:0.5;" x="518.4" xlink:href="#mcb0005524f" y="141.704347826"/>
      </g>
     </g>
     <g id="text_28">
      <!-- 1.5 -->
      <g transform="translate(51.2825 145.015597826)scale(0.12 -0.12)">
       <use xlink:href="#BitstreamVeraSans-Roman-31"/>
       <use x="63.623046875" xlink:href="#BitstreamVeraSans-Roman-2e"/>
       <use x="95.41015625" xlink:href="#BitstreamVeraSans-Roman-35"/>
      </g>
     </g>
    </g>
    <g id="ytick_17">
     <g id="line2d_61">
      <g>
       <use style="stroke:#000000;stroke-width:0.5;" x="72.0" xlink:href="#m728421d6d4" y="133.356521739"/>
      </g>
     </g>
     <g id="line2d_62">
      <g>
       <use style="stroke:#000000;stroke-width:0.5;" x="518.4" xlink:href="#mcb0005524f" y="133.356521739"/>
      </g>
     </g>
     <g id="text_29">
      <!-- 2.0 -->
      <g transform="translate(50.5925 136.667771739)scale(0.12 -0.12)">
       <use xlink:href="#BitstreamVeraSans-Roman-32"/>
       <use x="63.623046875" xlink:href="#BitstreamVeraSans-Roman-2e"/>
       <use x="95.41015625" xlink:href="#BitstreamVeraSans-Roman-30"/>
      </g>
     </g>
    </g>
   </g>
   <g id="patch_8">
    <path d="
M72 133.357
L518.4 133.357" style="fill:none;stroke:#000000;"/>
   </g>
   <g id="patch_9">
    <path d="
M518.4 208.487
L518.4 133.357" style="fill:none;stroke:#000000;"/>
   </g>
   <g id="patch_10">
    <path d="
M72 208.487
L518.4 208.487" style="fill:none;stroke:#000000;"/>
   </g>
   <g id="patch_11">
    <path d="
M72 208.487
L72 133.357" style="fill:none;stroke:#000000;"/>
   </g>
  </g>
  <g id="axes_3">
   <g id="patch_12">
    <path d="
M72 298.643
L518.4 298.643
L518.4 223.513
L72 223.513
z
" style="fill:#ffffff;"/>
   </g>
   <g id="line2d_63">
    <path clip-path="url(#p0df7fab1cc)" d="
M72 258.731
L76.464 257.219
L80.928 258.769
L85.392 262.113
L89.856 269.673
L94.32 277.498
L98.784 280.846
L103.248 280.904
L107.712 280.786
L112.176 281.091
L116.64 278.733
L121.104 275.019
L125.568 271.087
L130.032 268.358
L134.496 266.234
L138.96 264.934
L143.424 263.865
L147.888 262.637
L152.352 263.603
L156.816 262.499
L161.28 259.734
L165.744 253.185
L170.208 247.657
L174.672 246.186
L179.136 242.024
L183.6 239.978
L188.064 236.752
L192.528 238.254
L196.992 242.374
L201.456 250.659
L205.92 253.211
L210.384 256.793
L214.848 258.205
L219.312 260.11
L223.776 261.73
L228.24 262.537
L232.704 261.39
L237.168 264.486
L241.632 267.769
L246.096 275.293
L250.56 281.53
L255.024 285.827
L259.488 289.693
L263.952 287.096
L268.416 254.24
L272.88 251.809
L277.344 245.176
L281.808 242.628
L286.272 243.808
L290.736 246.374
L295.2 252.079
L299.664 258.502
L304.128 261.753
L308.592 263.121
L313.056 263.805
L317.52 263.358
L321.984 262.952
L326.448 264.225
L330.912 267.513
L335.376 271.208
L339.84 275.455
L344.304 279.082
L348.768 282.014
L353.232 282.039
L357.696 277.435
L362.16 271.869
L366.624 265.56
L371.088 262.011
L375.552 260.201
L380.016 260.034
L384.48 260.02
L388.944 258.022
L393.408 255.215
L397.872 250.678
L402.336 246.743
L406.8 241.099
L411.264 235.865
L415.728 233.37
L420.192 233.574
L424.656 238.233
L429.12 245.066
L433.584 251.662
L438.048 256.452
L442.512 259.185
L446.976 259.973
L451.44 258.565
L455.904 256.186
L460.368 256.396
L464.832 258.004
L469.296 261.665
L473.76 267.439
L478.224 274.202
L482.688 280.563
L487.152 285.38
L491.616 287.397
L496.08 284.206
L500.544 278.956
L505.008 274.394
L509.472 270.647
L513.936 270.367" style="fill:none;stroke:#0000ff;stroke-dasharray:1.000000,3.000000;stroke-dashoffset:0.0;"/>
   </g>
   <g id="line2d_64">
    <path clip-path="url(#p0df7fab1cc)" d="
M72 258.731
L76.464 257.219
L80.928 258.769
L85.392 262.113
L89.856 269.673
L94.32 277.498
L98.784 280.395
L103.248 287.688
L107.712 275.476
L112.176 272.496
L116.64 279.21
L121.104 273.573
L125.568 279.229
L130.032 279.205
L134.496 275.446
L138.96 254.84
L143.424 261.531
L147.888 258.6
L152.352 256.846
L156.816 250.838
L161.28 251.581
L165.744 262.796
L170.208 258.409
L174.672 246.658
L179.136 241.589
L183.6 240.43
L188.064 249.568
L192.528 229.701
L196.992 248.965
L201.456 229.099
L205.92 248.514
L210.384 247.023
L214.848 249.295
L219.312 254.182
L223.776 252.465
L228.24 261.742
L232.704 265.673
L237.168 271.1
L241.632 268.447
L246.096 286.234
L250.56 276.379
L255.024 288.772
L259.488 280.807
L263.952 286.748
L268.416 276.935
L272.88 281.424
L277.344 285.553
L281.808 281.548
L286.272 270.412
L290.736 274.1
L295.2 273.128
L299.664 282.093
L304.128 271.336
L308.592 279.826
L313.056 274.06
L317.52 247.529
L321.984 263.293
L326.448 250.295
L330.912 247.424
L335.376 249.868
L339.84 251.967
L344.304 253.471
L348.768 263.284
L353.232 253.848
L357.696 258.852
L362.16 255.773
L366.624 276.3
L371.088 276.635
L375.552 265.479
L380.016 265.652
L384.48 268.427
L388.944 275.043
L393.408 272.393
L397.872 287.202
L402.336 285.432
L406.8 275.499
L411.264 279.754
L415.728 285.245
L420.192 287.855
L424.656 279.005
L429.12 285.714
L433.584 280.471
L438.048 254.393
L442.512 268.123
L446.976 259.607
L451.44 251.448
L455.904 253.762
L460.368 246.796
L464.832 246.057
L469.296 236.361
L473.76 242.434
L478.224 246.376
L482.688 244.457
L487.152 247.112
L491.616 252.494
L496.08 236.456
L500.544 250.546
L505.008 274.914
L509.472 258.206
L513.936 258.164" style="fill:none;stroke:#008000;stroke-linecap:square;"/>
   </g>
   <g id="matplotlib.axis_5">
    <g id="xtick_13">
     <g id="line2d_65">
      <g>
       <use style="stroke:#000000;stroke-width:0.5;" x="72.0" xlink:href="#m93b0483c22" y="298.643478261"/>
      </g>
     </g>
     <g id="line2d_66">
      <g>
       <use style="stroke:#000000;stroke-width:0.5;" x="72.0" xlink:href="#m741efc42ff" y="223.513043478"/>
      </g>
     </g>
     <g id="text_30">
      <!-- 0 -->
      <g transform="translate(68.9765625 311.761603261)scale(0.12 -0.12)">
       <use xlink:href="#BitstreamVeraSans-Roman-30"/>
      </g>
     </g>
    </g>
    <g id="xtick_14">
     <g id="line2d_67">
      <g>
       <use style="stroke:#000000;stroke-width:0.5;" x="161.28" xlink:href="#m93b0483c22" y="298.643478261"/>
      </g>
     </g>
     <g id="line2d_68">
      <g>
       <use style="stroke:#000000;stroke-width:0.5;" x="161.28" xlink:href="#m741efc42ff" y="223.513043478"/>
      </g>
     </g>
     <g id="text_31">
      <!-- 20 -->
      <g transform="translate(154.483125 311.761603261)scale(0.12 -0.12)">
       <use xlink:href="#BitstreamVeraSans-Roman-32"/>
       <use x="63.623046875" xlink:href="#BitstreamVeraSans-Roman-30"/>
      </g>
     </g>
    </g>
    <g id="xtick_15">
     <g id="line2d_69">
      <g>
       <use style="stroke:#000000;stroke-width:0.5;" x="250.56" xlink:href="#m93b0483c22" y="298.643478261"/>
      </g>
     </g>
     <g id="line2d_70">
      <g>
       <use style="stroke:#000000;stroke-width:0.5;" x="250.56" xlink:href="#m741efc42ff" y="223.513043478"/>
      </g>
     </g>
     <g id="text_32">
      <!-- 40 -->
      <g transform="translate(243.616875 311.761603261)scale(0.12 -0.12)">
       <use xlink:href="#BitstreamVeraSans-Roman-34"/>
       <use x="63.623046875" xlink:href="#BitstreamVeraSans-Roman-30"/>
      </g>
     </g>
    </g>
    <g id="xtick_16">
     <g id="line2d_71">
      <g>
       <use style="stroke:#000000;stroke-width:0.5;" x="339.84" xlink:href="#m93b0483c22" y="298.643478261"/>
      </g>
     </g>
     <g id="line2d_72">
      <g>
       <use style="stroke:#000000;stroke-width:0.5;" x="339.84" xlink:href="#m741efc42ff" y="223.513043478"/>
      </g>
     </g>
     <g id="text_33">
      <!-- 60 -->
      <g transform="translate(333.0225 311.761603261)scale(0.12 -0.12)">
       <use xlink:href="#BitstreamVeraSans-Roman-36"/>
       <use x="63.623046875" xlink:href="#BitstreamVeraSans-Roman-30"/>
      </g>
     </g>
    </g>
    <g id="xtick_17">
     <g id="line2d_73">
      <g>
       <use style="stroke:#000000;stroke-width:0.5;" x="429.12" xlink:href="#m93b0483c22" y="298.643478261"/>
      </g>
     </g>
     <g id="line2d_74">
      <g>
       <use style="stroke:#000000;stroke-width:0.5;" x="429.12" xlink:href="#m741efc42ff" y="223.513043478"/>
      </g>
     </g>
     <g id="text_34">
      <!-- 80 -->
      <g transform="translate(422.2903125 311.761603261)scale(0.12 -0.12)">
       <use xlink:href="#BitstreamVeraSans-Roman-38"/>
       <use x="63.623046875" xlink:href="#BitstreamVeraSans-Roman-30"/>
      </g>
     </g>
    </g>
    <g id="xtick_18">
     <g id="line2d_75">
      <g>
       <use style="stroke:#000000;stroke-width:0.5;" x="518.4" xlink:href="#m93b0483c22" y="298.643478261"/>
      </g>
     </g>
     <g id="line2d_76">
      <g>
       <use style="stroke:#000000;stroke-width:0.5;" x="518.4" xlink:href="#m741efc42ff" y="223.513043478"/>
      </g>
     </g>
     <g id="text_35">
      <!-- 100 -->
      <g transform="translate(508.005 311.761603261)scale(0.12 -0.12)">
       <use xlink:href="#BitstreamVeraSans-Roman-31"/>
       <use x="63.623046875" xlink:href="#BitstreamVeraSans-Roman-30"/>
       <use x="127.24609375" xlink:href="#BitstreamVeraSans-Roman-30"/>
      </g>
     </g>
    </g>
   </g>
   <g id="matplotlib.axis_6">
    <g id="ytick_18">
     <g id="line2d_77">
      <g>
       <use style="stroke:#000000;stroke-width:0.5;" x="72.0" xlink:href="#m728421d6d4" y="298.643478261"/>
      </g>
     </g>
     <g id="line2d_78">
      <g>
       <use style="stroke:#000000;stroke-width:0.5;" x="518.4" xlink:href="#mcb0005524f" y="298.643478261"/>
      </g>
     </g>
     <g id="text_36">
      <!-- −2.0 -->
      <g transform="translate(40.92875 301.954728261)scale(0.12 -0.12)">
       <use xlink:href="#BitstreamVeraSans-Roman-2212"/>
       <use x="83.7890625" xlink:href="#BitstreamVeraSans-Roman-32"/>
       <use x="147.412109375" xlink:href="#BitstreamVeraSans-Roman-2e"/>
       <use x="179.19921875" xlink:href="#BitstreamVeraSans-Roman-30"/>
      </g>
     </g>
    </g>
    <g id="ytick_19">
     <g id="line2d_79">
      <g>
       <use style="stroke:#000000;stroke-width:0.5;" x="72.0" xlink:href="#m728421d6d4" y="289.252173913"/>
      </g>
     </g>
     <g id="line2d_80">
      <g>
       <use style="stroke:#000000;stroke-width:0.5;" x="518.4" xlink:href="#mcb0005524f" y="289.252173913"/>
      </g>
     </g>
     <g id="text_37">
      <!-- −1.5 -->
      <g transform="translate(41.18 292.563423913)scale(0.12 -0.12)">
       <use xlink:href="#BitstreamVeraSans-Roman-2212"/>
       <use x="83.7890625" xlink:href="#BitstreamVeraSans-Roman-31"/>
       <use x="147.412109375" xlink:href="#BitstreamVeraSans-Roman-2e"/>
       <use x="179.19921875" xlink:href="#BitstreamVeraSans-Roman-35"/>
      </g>
     </g>
    </g>
    <g id="ytick_20">
     <g id="line2d_81">
      <g>
       <use style="stroke:#000000;stroke-width:0.5;" x="72.0" xlink:href="#m728421d6d4" y="279.860869565"/>
      </g>
     </g>
     <g id="line2d_82">
      <g>
       <use style="stroke:#000000;stroke-width:0.5;" x="518.4" xlink:href="#mcb0005524f" y="279.860869565"/>
      </g>
     </g>
     <g id="text_38">
      <!-- −1.0 -->
      <g transform="translate(40.92875 283.172119565)scale(0.12 -0.12)">
       <use xlink:href="#BitstreamVeraSans-Roman-2212"/>
       <use x="83.7890625" xlink:href="#BitstreamVeraSans-Roman-31"/>
       <use x="147.412109375" xlink:href="#BitstreamVeraSans-Roman-2e"/>
       <use x="179.19921875" xlink:href="#BitstreamVeraSans-Roman-30"/>
      </g>
     </g>
    </g>
    <g id="ytick_21">
     <g id="line2d_83">
      <g>
       <use style="stroke:#000000;stroke-width:0.5;" x="72.0" xlink:href="#m728421d6d4" y="270.469565217"/>
      </g>
     </g>
     <g id="line2d_84">
      <g>
       <use style="stroke:#000000;stroke-width:0.5;" x="518.4" xlink:href="#mcb0005524f" y="270.469565217"/>
      </g>
     </g>
     <g id="text_39">
      <!-- −0.5 -->
      <g transform="translate(41.18 273.780815217)scale(0.12 -0.12)">
       <use xlink:href="#BitstreamVeraSans-Roman-2212"/>
       <use x="83.7890625" xlink:href="#BitstreamVeraSans-Roman-30"/>
       <use x="147.412109375" xlink:href="#BitstreamVeraSans-Roman-2e"/>
       <use x="179.19921875" xlink:href="#BitstreamVeraSans-Roman-35"/>
      </g>
     </g>
    </g>
    <g id="ytick_22">
     <g id="line2d_85">
      <g>
       <use style="stroke:#000000;stroke-width:0.5;" x="72.0" xlink:href="#m728421d6d4" y="261.07826087"/>
      </g>
     </g>
     <g id="line2d_86">
      <g>
       <use style="stroke:#000000;stroke-width:0.5;" x="518.4" xlink:href="#mcb0005524f" y="261.07826087"/>
      </g>
     </g>
     <g id="text_40">
      <!-- 0.0 -->
      <g transform="translate(50.504375 264.38951087)scale(0.12 -0.12)">
       <use xlink:href="#BitstreamVeraSans-Roman-30"/>
       <use x="63.623046875" xlink:href="#BitstreamVeraSans-Roman-2e"/>
       <use x="95.41015625" xlink:href="#BitstreamVeraSans-Roman-30"/>
      </g>
     </g>
    </g>
    <g id="ytick_23">
     <g id="line2d_87">
      <g>
       <use style="stroke:#000000;stroke-width:0.5;" x="72.0" xlink:href="#m728421d6d4" y="251.686956522"/>
      </g>
     </g>
     <g id="line2d_88">
      <g>
       <use style="stroke:#000000;stroke-width:0.5;" x="518.4" xlink:href="#mcb0005524f" y="251.686956522"/>
      </g>
     </g>
     <g id="text_41">
      <!-- 0.5 -->
      <g transform="translate(50.755625 254.998206522)scale(0.12 -0.12)">
       <use xlink:href="#BitstreamVeraSans-Roman-30"/>
       <use x="63.623046875" xlink:href="#BitstreamVeraSans-Roman-2e"/>
       <use x="95.41015625" xlink:href="#BitstreamVeraSans-Roman-35"/>
      </g>
     </g>
    </g>
    <g id="ytick_24">
     <g id="line2d_89">
      <g>
       <use style="stroke:#000000;stroke-width:0.5;" x="72.0" xlink:href="#m728421d6d4" y="242.295652174"/>
      </g>
     </g>
     <g id="line2d_90">
      <g>
       <use style="stroke:#000000;stroke-width:0.5;" x="518.4" xlink:href="#mcb0005524f" y="242.295652174"/>
      </g>
     </g>
     <g id="text_42">
      <!-- 1.0 -->
      <g transform="translate(51.03125 245.606902174)scale(0.12 -0.12)">
       <use xlink:href="#BitstreamVeraSans-Roman-31"/>
       <use x="63.623046875" xlink:href="#BitstreamVeraSans-Roman-2e"/>
       <use x="95.41015625" xlink:href="#BitstreamVeraSans-Roman-30"/>
      </g>
     </g>
    </g>
    <g id="ytick_25">
     <g id="line2d_91">
      <g>
       <use style="stroke:#000000;stroke-width:0.5;" x="72.0" xlink:href="#m728421d6d4" y="232.904347826"/>
      </g>
     </g>
     <g id="line2d_92">
      <g>
       <use style="stroke:#000000;stroke-width:0.5;" x="518.4" xlink:href="#mcb0005524f" y="232.904347826"/>
      </g>
     </g>
     <g id="text_43">
      <!-- 1.5 -->
      <g transform="translate(51.2825 236.215597826)scale(0.12 -0.12)">
       <use xlink:href="#BitstreamVeraSans-Roman-31"/>
       <use x="63.623046875" xlink:href="#BitstreamVeraSans-Roman-2e"/>
       <use x="95.41015625" xlink:href="#BitstreamVeraSans-Roman-35"/>
      </g>
     </g>
    </g>
    <g id="ytick_26">
     <g id="line2d_93">
      <g>
       <use style="stroke:#000000;stroke-width:0.5;" x="72.0" xlink:href="#m728421d6d4" y="223.513043478"/>
      </g>
     </g>
     <g id="line2d_94">
      <g>
       <use style="stroke:#000000;stroke-width:0.5;" x="518.4" xlink:href="#mcb0005524f" y="223.513043478"/>
      </g>
     </g>
     <g id="text_44">
      <!-- 2.0 -->
      <g transform="translate(50.5925 226.824293478)scale(0.12 -0.12)">
       <use xlink:href="#BitstreamVeraSans-Roman-32"/>
       <use x="63.623046875" xlink:href="#BitstreamVeraSans-Roman-2e"/>
       <use x="95.41015625" xlink:href="#BitstreamVeraSans-Roman-30"/>
      </g>
     </g>
    </g>
   </g>
   <g id="patch_13">
    <path d="
M72 223.513
L518.4 223.513" style="fill:none;stroke:#000000;"/>
   </g>
   <g id="patch_14">
    <path d="
M518.4 298.643
L518.4 223.513" style="fill:none;stroke:#000000;"/>
   </g>
   <g id="patch_15">
    <path d="
M72 298.643
L518.4 298.643" style="fill:none;stroke:#000000;"/>
   </g>
   <g id="patch_16">
    <path d="
M72 298.643
L72 223.513" style="fill:none;stroke:#000000;"/>
   </g>
  </g>
  <g id="axes_4">
   <g id="patch_17">
    <path d="
M72 388.8
L518.4 388.8
L518.4 313.67
L72 313.67
z
" style="fill:#ffffff;"/>
   </g>
   <g id="line2d_95">
    <path clip-path="url(#p2b0f93717e)" d="
M72 362.272
L76.464 360.509
L80.928 358.835
L85.392 356.126
L89.856 353.422
L94.32 348.905
L98.784 344.21
L103.248 340.113
L107.712 336.304
L112.176 333.946
L116.64 331.957
L121.104 334.122
L125.568 339.06
L130.032 345.012
L134.496 350.642
L138.96 355.284
L143.424 357.661
L147.888 359.192
L152.352 359.998
L156.816 359.58
L161.28 359.597
L165.744 361.276
L170.208 366.2
L174.672 374.094
L179.136 377.775
L183.6 378.834
L188.064 379.037
L192.528 378.54
L196.992 375.541
L201.456 371.303
L205.92 366.091
L210.384 361.399
L214.848 358.387
L219.312 356.148
L223.776 355.406
L228.24 355.666
L232.704 354.846
L237.168 352.777
L241.632 348.756
L246.096 342.745
L250.56 337.298
L255.024 334.019
L259.488 332.111
L263.952 331.739
L268.416 335.136
L272.88 340.321
L277.344 345.534
L281.808 349.553
L286.272 352.217
L290.736 354.642
L295.2 356.031
L299.664 357.304
L304.128 356.97
L308.592 358.03
L313.056 361.221
L317.52 366.922
L321.984 373.539
L326.448 375.938
L330.912 377.334
L335.376 377.317
L339.84 375.737
L344.304 373.201
L348.768 368.52
L353.232 363.688
L357.696 359.939
L362.16 358.648
L366.624 359.073
L371.088 358.659
L375.552 358.431
L380.016 360.369
L384.48 359.679
L388.944 358.776
L393.408 353.088
L397.872 347.923
L402.336 344.239
L406.8 342.236
L411.264 339.253
L415.728 335.401
L420.192 336.676
L424.656 339.297
L429.12 345.14
L433.584 352.458
L438.048 355.543
L442.512 355.218
L446.976 356.61
L451.44 355.578
L455.904 355.373
L460.368 354.441
L464.832 355.495
L469.296 361.013
L473.76 365.977
L478.224 372.825
L482.688 378.939
L487.152 380.886
L491.616 381.706
L496.08 377.844
L500.544 376.748
L505.008 370.405
L509.472 372.861
L513.936 375.554" style="fill:none;stroke:#0000ff;stroke-dasharray:1.000000,3.000000;stroke-dashoffset:0.0;"/>
   </g>
   <g id="line2d_96">
    <path clip-path="url(#p2b0f93717e)" d="
M72 362.272
L76.464 360.509
L80.928 358.835
L85.392 356.126
L89.856 353.422
L94.32 348.905
L98.784 352.862
L103.248 346.89
L107.712 329.469
L112.176 328.868
L116.64 326.78
L121.104 324.37
L125.568 327.323
L130.032 329.754
L134.496 331.254
L138.96 335.237
L143.424 336.241
L147.888 337.798
L152.352 342.716
L156.816 338.141
L161.28 348.847
L165.744 352.891
L170.208 352.412
L174.672 360.48
L179.136 351.679
L183.6 362.873
L188.064 358.778
L192.528 354.994
L196.992 372.557
L201.456 370.825
L205.92 363.344
L210.384 360.615
L214.848 362.806
L219.312 351.368
L223.776 358.074
L228.24 363.648
L232.704 348.668
L237.168 342.776
L241.632 342.436
L246.096 339.82
L250.56 342.393
L255.024 341.145
L259.488 338.825
L263.952 331.843
L268.416 335.043
L272.88 330.07
L277.344 322.348
L281.808 319.748
L286.272 326.283
L290.736 326.541
L295.2 338.221
L299.664 335.8
L304.128 338.474
L308.592 342.019
L313.056 343.054
L317.52 350.813
L321.984 347.161
L326.448 348.766
L330.912 349.197
L335.376 362.058
L339.84 354.227
L344.304 358.335
L348.768 363.348
L353.232 361.531
L357.696 358.972
L362.16 357.326
L366.624 361.477
L371.088 361.47
L375.552 354.698
L380.016 353.57
L384.48 351.231
L388.944 351.959
L393.408 350.294
L397.872 346.673
L402.336 354.021
L406.8 342.552
L411.264 348.817
L415.728 343.856
L420.192 338.025
L424.656 338.928
L429.12 333.257
L433.584 340.02
L438.048 336.051
L442.512 334.56
L446.976 333.283
L451.44 342.364
L455.904 344.175
L460.368 341.833
L464.832 348.336
L469.296 353.703
L473.76 352.617
L478.224 359.07
L482.688 359.397
L487.152 356.266
L491.616 364.87
L496.08 366.92
L500.544 372.61
L505.008 379.704
L509.472 368.656
L513.936 371.73" style="fill:none;stroke:#008000;stroke-linecap:square;"/>
   </g>
   <g id="matplotlib.axis_7">
    <g id="xtick_19">
     <g id="line2d_97">
      <g>
       <use style="stroke:#000000;stroke-width:0.5;" x="72.0" xlink:href="#m93b0483c22" y="388.8"/>
      </g>
     </g>
     <g id="line2d_98">
      <g>
       <use style="stroke:#000000;stroke-width:0.5;" x="72.0" xlink:href="#m741efc42ff" y="313.669565217"/>
      </g>
     </g>
     <g id="text_45">
      <!-- 0 -->
      <g transform="translate(68.9765625 401.918125)scale(0.12 -0.12)">
       <use xlink:href="#BitstreamVeraSans-Roman-30"/>
      </g>
     </g>
    </g>
    <g id="xtick_20">
     <g id="line2d_99">
      <g>
       <use style="stroke:#000000;stroke-width:0.5;" x="161.28" xlink:href="#m93b0483c22" y="388.8"/>
      </g>
     </g>
     <g id="line2d_100">
      <g>
       <use style="stroke:#000000;stroke-width:0.5;" x="161.28" xlink:href="#m741efc42ff" y="313.669565217"/>
      </g>
     </g>
     <g id="text_46">
      <!-- 20 -->
      <g transform="translate(154.483125 401.918125)scale(0.12 -0.12)">
       <use xlink:href="#BitstreamVeraSans-Roman-32"/>
       <use x="63.623046875" xlink:href="#BitstreamVeraSans-Roman-30"/>
      </g>
     </g>
    </g>
    <g id="xtick_21">
     <g id="line2d_101">
      <g>
       <use style="stroke:#000000;stroke-width:0.5;" x="250.56" xlink:href="#m93b0483c22" y="388.8"/>
      </g>
     </g>
     <g id="line2d_102">
      <g>
       <use style="stroke:#000000;stroke-width:0.5;" x="250.56" xlink:href="#m741efc42ff" y="313.669565217"/>
      </g>
     </g>
     <g id="text_47">
      <!-- 40 -->
      <g transform="translate(243.616875 401.918125)scale(0.12 -0.12)">
       <use xlink:href="#BitstreamVeraSans-Roman-34"/>
       <use x="63.623046875" xlink:href="#BitstreamVeraSans-Roman-30"/>
      </g>
     </g>
    </g>
    <g id="xtick_22">
     <g id="line2d_103">
      <g>
       <use style="stroke:#000000;stroke-width:0.5;" x="339.84" xlink:href="#m93b0483c22" y="388.8"/>
      </g>
     </g>
     <g id="line2d_104">
      <g>
       <use style="stroke:#000000;stroke-width:0.5;" x="339.84" xlink:href="#m741efc42ff" y="313.669565217"/>
      </g>
     </g>
     <g id="text_48">
      <!-- 60 -->
      <g transform="translate(333.0225 401.918125)scale(0.12 -0.12)">
       <use xlink:href="#BitstreamVeraSans-Roman-36"/>
       <use x="63.623046875" xlink:href="#BitstreamVeraSans-Roman-30"/>
      </g>
     </g>
    </g>
    <g id="xtick_23">
     <g id="line2d_105">
      <g>
       <use style="stroke:#000000;stroke-width:0.5;" x="429.12" xlink:href="#m93b0483c22" y="388.8"/>
      </g>
     </g>
     <g id="line2d_106">
      <g>
       <use style="stroke:#000000;stroke-width:0.5;" x="429.12" xlink:href="#m741efc42ff" y="313.669565217"/>
      </g>
     </g>
     <g id="text_49">
      <!-- 80 -->
      <g transform="translate(422.2903125 401.918125)scale(0.12 -0.12)">
       <use xlink:href="#BitstreamVeraSans-Roman-38"/>
       <use x="63.623046875" xlink:href="#BitstreamVeraSans-Roman-30"/>
      </g>
     </g>
    </g>
    <g id="xtick_24">
     <g id="line2d_107">
      <g>
       <use style="stroke:#000000;stroke-width:0.5;" x="518.4" xlink:href="#m93b0483c22" y="388.8"/>
      </g>
     </g>
     <g id="line2d_108">
      <g>
       <use style="stroke:#000000;stroke-width:0.5;" x="518.4" xlink:href="#m741efc42ff" y="313.669565217"/>
      </g>
     </g>
     <g id="text_50">
      <!-- 100 -->
      <g transform="translate(508.005 401.918125)scale(0.12 -0.12)">
       <use xlink:href="#BitstreamVeraSans-Roman-31"/>
       <use x="63.623046875" xlink:href="#BitstreamVeraSans-Roman-30"/>
       <use x="127.24609375" xlink:href="#BitstreamVeraSans-Roman-30"/>
      </g>
     </g>
    </g>
   </g>
   <g id="matplotlib.axis_8">
    <g id="ytick_27">
     <g id="line2d_109">
      <g>
       <use style="stroke:#000000;stroke-width:0.5;" x="72.0" xlink:href="#m728421d6d4" y="388.8"/>
      </g>
     </g>
     <g id="line2d_110">
      <g>
       <use style="stroke:#000000;stroke-width:0.5;" x="518.4" xlink:href="#mcb0005524f" y="388.8"/>
      </g>
     </g>
     <g id="text_51">
      <!-- −2 -->
      <g transform="translate(52.7825 392.11125)scale(0.12 -0.12)">
       <use xlink:href="#BitstreamVeraSans-Roman-2212"/>
       <use x="83.7890625" xlink:href="#BitstreamVeraSans-Roman-32"/>
      </g>
     </g>
    </g>
    <g id="ytick_28">
     <g id="line2d_111">
      <g>
       <use style="stroke:#000000;stroke-width:0.5;" x="72.0" xlink:href="#m728421d6d4" y="373.773913043"/>
      </g>
     </g>
     <g id="line2d_112">
      <g>
       <use style="stroke:#000000;stroke-width:0.5;" x="518.4" xlink:href="#mcb0005524f" y="373.773913043"/>
      </g>
     </g>
     <g id="text_52">
      <!-- −1 -->
      <g transform="translate(52.68875 377.085163043)scale(0.12 -0.12)">
       <use xlink:href="#BitstreamVeraSans-Roman-2212"/>
       <use x="83.7890625" xlink:href="#BitstreamVeraSans-Roman-31"/>
      </g>
     </g>
    </g>
    <g id="ytick_29">
     <g id="line2d_113">
      <g>
       <use style="stroke:#000000;stroke-width:0.5;" x="72.0" xlink:href="#m728421d6d4" y="358.747826087"/>
      </g>
     </g>
     <g id="line2d_114">
      <g>
       <use style="stroke:#000000;stroke-width:0.5;" x="518.4" xlink:href="#mcb0005524f" y="358.747826087"/>
      </g>
     </g>
     <g id="text_53">
      <!-- 0 -->
      <g transform="translate(61.953125 362.059076087)scale(0.12 -0.12)">
       <use xlink:href="#BitstreamVeraSans-Roman-30"/>
      </g>
     </g>
    </g>
    <g id="ytick_30">
     <g id="line2d_115">
      <g>
       <use style="stroke:#000000;stroke-width:0.5;" x="72.0" xlink:href="#m728421d6d4" y="343.72173913"/>
      </g>
     </g>
     <g id="line2d_116">
      <g>
       <use style="stroke:#000000;stroke-width:0.5;" x="518.4" xlink:href="#mcb0005524f" y="343.72173913"/>
      </g>
     </g>
     <g id="text_54">
      <!-- 1 -->
      <g transform="translate(62.79125 347.03298913)scale(0.12 -0.12)">
       <use xlink:href="#BitstreamVeraSans-Roman-31"/>
      </g>
     </g>
    </g>
    <g id="ytick_31">
     <g id="line2d_117">
      <g>
       <use style="stroke:#000000;stroke-width:0.5;" x="72.0" xlink:href="#m728421d6d4" y="328.695652174"/>
      </g>
     </g>
     <g id="line2d_118">
      <g>
       <use style="stroke:#000000;stroke-width:0.5;" x="518.4" xlink:href="#mcb0005524f" y="328.695652174"/>
      </g>
     </g>
     <g id="text_55">
      <!-- 2 -->
      <g transform="translate(62.44625 332.006902174)scale(0.12 -0.12)">
       <use xlink:href="#BitstreamVeraSans-Roman-32"/>
      </g>
     </g>
    </g>
    <g id="ytick_32">
     <g id="line2d_119">
      <g>
       <use style="stroke:#000000;stroke-width:0.5;" x="72.0" xlink:href="#m728421d6d4" y="313.669565217"/>
      </g>
     </g>
     <g id="line2d_120">
      <g>
       <use style="stroke:#000000;stroke-width:0.5;" x="518.4" xlink:href="#mcb0005524f" y="313.669565217"/>
      </g>
     </g>
     <g id="text_56">
      <!-- 3 -->
      <g transform="translate(62.241875 316.980815217)scale(0.12 -0.12)">
       <use xlink:href="#BitstreamVeraSans-Roman-33"/>
      </g>
     </g>
    </g>
   </g>
   <g id="patch_18">
    <path d="
M72 313.67
L518.4 313.67" style="fill:none;stroke:#000000;"/>
   </g>
   <g id="patch_19">
    <path d="
M518.4 388.8
L518.4 313.67" style="fill:none;stroke:#000000;"/>
   </g>
   <g id="patch_20">
    <path d="
M72 388.8
L518.4 388.8" style="fill:none;stroke:#000000;"/>
   </g>
   <g id="patch_21">
    <path d="
M72 388.8
L72 313.67" style="fill:none;stroke:#000000;"/>
   </g>
   <g id="legend_1">
    <g id="patch_22">
     <path d="
M418.305 363.493
L511.2 363.493
L511.2 320.87
L418.305 320.87
L418.305 363.493
z
" style="fill:#ffffff;stroke:#000000;"/>
    </g>
    <g id="line2d_121">
     <path d="
M428.385 331.67
L448.545 331.67" style="fill:none;stroke:#0000ff;stroke-dasharray:1.000000,3.000000;stroke-dashoffset:0.0;"/>
    </g>
    <g id="line2d_122"/>
    <g id="text_57">
     <!-- true -->
     <defs>
      <path d="
M56.2031 29.5938
L56.2031 25.2031
L14.8906 25.2031
Q15.4844 15.9219 20.4844 11.0625
Q25.4844 6.20312 34.4219 6.20312
Q39.5938 6.20312 44.4531 7.46875
Q49.3125 8.73438 54.1094 11.2812
L54.1094 2.78125
Q49.2656 0.734375 44.1875 -0.34375
Q39.1094 -1.42188 33.8906 -1.42188
Q20.7969 -1.42188 13.1562 6.1875
Q5.51562 13.8125 5.51562 26.8125
Q5.51562 40.2344 12.7656 48.1094
Q20.0156 56 32.3281 56
Q43.3594 56 49.7812 48.8906
Q56.2031 41.7969 56.2031 29.5938
M47.2188 32.2344
Q47.125 39.5938 43.0938 43.9844
Q39.0625 48.3906 32.4219 48.3906
Q24.9062 48.3906 20.3906 44.1406
Q15.875 39.8906 15.1875 32.1719
z
" id="BitstreamVeraSans-Roman-65"/>
      <path d="
M18.3125 70.2188
L18.3125 54.6875
L36.8125 54.6875
L36.8125 47.7031
L18.3125 47.7031
L18.3125 18.0156
Q18.3125 11.3281 20.1406 9.42188
Q21.9688 7.51562 27.5938 7.51562
L36.8125 7.51562
L36.8125 0
L27.5938 0
Q17.1875 0 13.2344 3.875
Q9.28125 7.76562 9.28125 18.0156
L9.28125 47.7031
L2.6875 47.7031
L2.6875 54.6875
L9.28125 54.6875
L9.28125 70.2188
z
" id="BitstreamVeraSans-Roman-74"/>
      <path d="
M8.5 21.5781
L8.5 54.6875
L17.4844 54.6875
L17.4844 21.9219
Q17.4844 14.1562 20.5 10.2656
Q23.5312 6.39062 29.5938 6.39062
Q36.8594 6.39062 41.0781 11.0312
Q45.3125 15.6719 45.3125 23.6875
L45.3125 54.6875
L54.2969 54.6875
L54.2969 0
L45.3125 0
L45.3125 8.40625
Q42.0469 3.42188 37.7188 1
Q33.4062 -1.42188 27.6875 -1.42188
Q18.2656 -1.42188 13.375 4.4375
Q8.5 10.2969 8.5 21.5781" id="BitstreamVeraSans-Roman-75"/>
      <path d="
M41.1094 46.2969
Q39.5938 47.1719 37.8125 47.5781
Q36.0312 48 33.8906 48
Q26.2656 48 22.1875 43.0469
Q18.1094 38.0938 18.1094 28.8125
L18.1094 0
L9.07812 0
L9.07812 54.6875
L18.1094 54.6875
L18.1094 46.1875
Q20.9531 51.1719 25.4844 53.5781
Q30.0312 56 36.5312 56
Q37.4531 56 38.5781 55.875
Q39.7031 55.7656 41.0625 55.5156
z
" id="BitstreamVeraSans-Roman-72"/>
     </defs>
     <g transform="translate(464.38453125 336.709565217)scale(0.09 -0.09)">
      <use xlink:href="#BitstreamVeraSans-Roman-74"/>
      <use x="39.208984375" xlink:href="#BitstreamVeraSans-Roman-72"/>
      <use x="80.322265625" xlink:href="#BitstreamVeraSans-Roman-75"/>
      <use x="143.701171875" xlink:href="#BitstreamVeraSans-Roman-65"/>
     </g>
    </g>
    <g id="line2d_123">
     <path d="
M428.385 350.821
L448.545 350.821" style="fill:none;stroke:#008000;stroke-linecap:square;"/>
    </g>
    <g id="line2d_124"/>
    <g id="text_58">
     <!-- predicted -->
     <defs>
      <path d="
M45.4062 46.3906
L45.4062 75.9844
L54.3906 75.9844
L54.3906 0
L45.4062 0
L45.4062 8.20312
Q42.5781 3.32812 38.25 0.953125
Q33.9375 -1.42188 27.875 -1.42188
Q17.9688 -1.42188 11.7344 6.48438
Q5.51562 14.4062 5.51562 27.2969
Q5.51562 40.1875 11.7344 48.0938
Q17.9688 56 27.875 56
Q33.9375 56 38.25 53.625
Q42.5781 51.2656 45.4062 46.3906
M14.7969 27.2969
Q14.7969 17.3906 18.875 11.75
Q22.9531 6.10938 30.0781 6.10938
Q37.2031 6.10938 41.2969 11.75
Q45.4062 17.3906 45.4062 27.2969
Q45.4062 37.2031 41.2969 42.8438
Q37.2031 48.4844 30.0781 48.4844
Q22.9531 48.4844 18.875 42.8438
Q14.7969 37.2031 14.7969 27.2969" id="BitstreamVeraSans-Roman-64"/>
      <path d="
M9.42188 54.6875
L18.4062 54.6875
L18.4062 0
L9.42188 0
z

M9.42188 75.9844
L18.4062 75.9844
L18.4062 64.5938
L9.42188 64.5938
z
" id="BitstreamVeraSans-Roman-69"/>
      <path d="
M48.7812 52.5938
L48.7812 44.1875
Q44.9688 46.2969 41.1406 47.3438
Q37.3125 48.3906 33.4062 48.3906
Q24.6562 48.3906 19.8125 42.8438
Q14.9844 37.3125 14.9844 27.2969
Q14.9844 17.2812 19.8125 11.7344
Q24.6562 6.20312 33.4062 6.20312
Q37.3125 6.20312 41.1406 7.25
Q44.9688 8.29688 48.7812 10.4062
L48.7812 2.09375
Q45.0156 0.34375 40.9844 -0.53125
Q36.9688 -1.42188 32.4219 -1.42188
Q20.0625 -1.42188 12.7812 6.34375
Q5.51562 14.1094 5.51562 27.2969
Q5.51562 40.6719 12.8594 48.3281
Q20.2188 56 33.0156 56
Q37.1562 56 41.1094 55.1406
Q45.0625 54.2969 48.7812 52.5938" id="BitstreamVeraSans-Roman-63"/>
      <path d="
M18.1094 8.20312
L18.1094 -20.7969
L9.07812 -20.7969
L9.07812 54.6875
L18.1094 54.6875
L18.1094 46.3906
Q20.9531 51.2656 25.2656 53.625
Q29.5938 56 35.5938 56
Q45.5625 56 51.7812 48.0938
Q58.0156 40.1875 58.0156 27.2969
Q58.0156 14.4062 51.7812 6.48438
Q45.5625 -1.42188 35.5938 -1.42188
Q29.5938 -1.42188 25.2656 0.953125
Q20.9531 3.32812 18.1094 8.20312
M48.6875 27.2969
Q48.6875 37.2031 44.6094 42.8438
Q40.5312 48.4844 33.4062 48.4844
Q26.2656 48.4844 22.1875 42.8438
Q18.1094 37.2031 18.1094 27.2969
Q18.1094 17.3906 22.1875 11.75
Q26.2656 6.10938 33.4062 6.10938
Q40.5312 6.10938 44.6094 11.75
Q48.6875 17.3906 48.6875 27.2969" id="BitstreamVeraSans-Roman-70"/>
     </defs>
     <g transform="translate(464.38453125 355.861283967)scale(0.09 -0.09)">
      <use xlink:href="#BitstreamVeraSans-Roman-70"/>
      <use x="63.4765625" xlink:href="#BitstreamVeraSans-Roman-72"/>
      <use x="102.33984375" xlink:href="#BitstreamVeraSans-Roman-65"/>
      <use x="163.86328125" xlink:href="#BitstreamVeraSans-Roman-64"/>
      <use x="227.33984375" xlink:href="#BitstreamVeraSans-Roman-69"/>
      <use x="255.123046875" xlink:href="#BitstreamVeraSans-Roman-63"/>
      <use x="310.103515625" xlink:href="#BitstreamVeraSans-Roman-74"/>
      <use x="349.3125" xlink:href="#BitstreamVeraSans-Roman-65"/>
      <use x="410.8359375" xlink:href="#BitstreamVeraSans-Roman-64"/>
     </g>
    </g>
   </g>
  </g>
 </g>
 <defs>
  <clipPath id="p0df7fab1cc">
   <rect height="75.1304347826" width="446.4" x="72.0" y="223.513043478"/>
  </clipPath>
  <clipPath id="pd7316e3762">
   <rect height="75.1304347826" width="446.4" x="72.0" y="43.2"/>
  </clipPath>
  <clipPath id="p2b0f93717e">
   <rect height="75.1304347826" width="446.4" x="72.0" y="313.669565217"/>
  </clipPath>
  <clipPath id="pa8d1ef9391">
   <rect height="75.1304347826" width="446.4" x="72.0" y="133.356521739"/>
  </clipPath>
 </defs>
</svg>
